<?xml version="1.0" standalone="no"?>
<!DOCTYPE svg PUBLIC "-//W3C//DTD SVG 20010904//EN"
 "http://www.w3.org/TR/2001/REC-SVG-20010904/DTD/svg10.dtd">
<svg version="1.0" xmlns="http://www.w3.org/2000/svg"
 width="310.000000pt" height="301.000000pt" viewBox="0 0 310.000000 301.000000"
 preserveAspectRatio="xMidYMid meet">
<metadata>
Created by potrace 1.16, written by Peter Selinger 2001-2019
</metadata>
<g transform="translate(0.000000,301.000000) scale(0.100000,-0.100000)"
fill="#000000" stroke="none">
<path d="M712 2565 c-25 -28 -29 -90 -9 -116 33 -43 84 -49 124 -15 23 20 28
32 28 71 0 37 -5 51 -24 66 -34 28 -92 25 -119 -6z"/>
<path d="M1993 2565 c-35 -37 -32 -96 8 -129 42 -35 74 -33 115 8 41 41 43 73
8 115 -21 26 -33 31 -67 30 -31 0 -48 -7 -64 -24z"/>
<path d="M1616 2479 c-36 -29 -36 -79 1 -114 56 -52 133 -20 133 55 0 72 -75
105 -134 59z"/>
<path d="M2336 2336 c-45 -60 -28 -149 34 -181 93 -48 192 41 161 145 -16 53
-43 70 -112 70 -53 0 -58 -2 -83 -34z"/>
<path d="M1002 2196 c-34 -35 -62 -68 -62 -73 0 -6 -9 -18 -20 -28 -11 -10
-20 -23 -20 -28 0 -6 -11 -25 -25 -43 -14 -18 -25 -39 -25 -47 0 -8 -7 -28
-16 -46 -46 -92 -61 -299 -31 -426 33 -142 107 -272 225 -393 l71 -73 60 3 59
3 -73 80 c-41 44 -81 87 -90 96 -8 9 -15 21 -15 27 0 6 -6 15 -13 19 -19 12
-70 92 -100 157 -37 81 -38 192 -2 294 29 83 81 183 101 195 8 4 14 12 14 16
0 4 18 28 39 52 22 24 58 64 80 89 l40 45 -75 3 c-65 2 -74 5 -70 20 7 23 25
105 26 115 0 18 -21 3 -78 -57z"/>
<path d="M506 2069 c-23 -18 -26 -28 -26 -79 0 -51 4 -63 26 -84 72 -66 184
-18 184 79 0 42 -22 90 -45 99 -37 14 -112 6 -139 -15z"/>
<path d="M1805 2029 c-38 -11 -88 -24 -110 -29 -22 -5 -59 -18 -82 -29 -23
-12 -47 -21 -52 -21 -17 0 -241 -108 -241 -116 0 -7 153 4 176 13 11 4 14 -9
14 -63 l1 -69 24 28 c13 15 28 27 33 27 6 0 17 11 26 25 9 14 22 25 29 25 7 0
18 9 25 20 7 11 18 20 26 20 7 0 21 9 31 20 25 27 174 98 224 106 89 14 148
-19 196 -112 23 -46 26 -63 26 -156 0 -96 -6 -129 -31 -183 -5 -11 -16 -36
-24 -55 -17 -38 -28 -57 -63 -107 -13 -17 -23 -36 -23 -42 0 -5 -6 -14 -12
-18 -7 -4 -35 -35 -63 -68 -27 -33 -84 -93 -125 -132 l-75 -73 58 0 c57 0 61
2 106 48 26 26 94 89 149 140 56 52 102 98 102 104 0 5 10 24 23 41 30 43 45
67 59 97 7 14 22 39 34 57 27 40 38 150 25 250 -12 98 -62 197 -120 238 -42
29 -46 30 -169 32 -101 2 -141 -2 -197 -18z"/>
<path d="M2621 1693 c-45 -22 -91 -95 -91 -145 0 -130 144 -218 254 -155 58
33 79 67 84 135 5 77 -22 133 -78 162 -48 25 -122 26 -169 3z"/>
<path d="M1270 1546 c-67 -16 -128 -58 -152 -102 -16 -31 -19 -50 -16 -99 3
-34 10 -70 16 -81 5 -10 15 -30 21 -44 23 -51 47 -88 96 -147 24 -29 30 -32
99 -35 65 -3 73 -1 66 13 -5 9 -16 21 -24 29 -9 7 -16 19 -16 27 0 7 -7 16
-15 19 -8 3 -17 16 -21 27 -4 12 -17 36 -30 53 -13 17 -24 37 -24 43 0 7 -10
26 -21 43 -30 42 -38 117 -14 135 51 36 154 -11 192 -88 24 -49 63 -197 63
-240 0 -46 10 -59 44 -59 24 0 34 6 44 27 6 15 12 32 12 38 0 17 90 115 107
115 11 0 13 -5 8 -17 -4 -10 -10 -29 -13 -43 -3 -14 -8 -27 -12 -30 -8 -7 -50
-76 -50 -84 0 -3 17 -6 38 -6 29 0 44 7 68 33 50 52 94 145 94 199 0 63 -7 76
-49 94 -30 13 -43 13 -81 3 -45 -13 -99 -57 -114 -94 -7 -16 -12 -4 -23 50
-22 104 -83 180 -178 219 -42 18 -52 18 -115 2z"/>
<path d="M345 1514 c-44 -48 -27 -146 30 -172 36 -17 76 -15 105 4 40 27 50
45 50 94 0 38 -5 51 -28 73 -23 22 -37 27 -81 27 -43 0 -56 -4 -76 -26z"/>
<path d="M1440 895 l0 -124 -87 -4 -88 -3 88 -2 c70 -2 87 -5 87 -17 0 -12 15
-15 75 -15 60 0 75 3 75 15 0 13 30 15 210 15 133 0 210 4 210 10 0 6 -77 10
-210 10 l-210 0 0 120 0 120 -75 0 -75 0 0 -125z"/>
<path d="M1483 693 l-43 -4 0 -85 0 -85 47 7 c102 15 98 11 101 97 l3 77 -33
-2 c-18 -1 -52 -3 -75 -5z"/>
</g>
</svg>
