<?xml version="1.0" standalone="no"?>
<!DOCTYPE svg PUBLIC "-//W3C//DTD SVG 20010904//EN"
 "http://www.w3.org/TR/2001/REC-SVG-20010904/DTD/svg10.dtd">
<svg version="1.0" xmlns="http://www.w3.org/2000/svg"
 width="512.000000pt" height="512.000000pt" viewBox="0 0 512.000000 512.000000"
 preserveAspectRatio="xMidYMid meet">
<metadata>
Created by potrace 1.16, written by Peter Selinger 2001-2019
</metadata>
<g transform="translate(0.000000,512.000000) scale(0.100000,-0.100000)"
fill="#000000" stroke="none">
<path d="M2511 5051 c-8 -5 -175 -170 -372 -367 -314 -313 -384 -392 -366
-410 2 -2 178 172 393 387 l389 389 3 -72 3 -72 -268 -269 c-191 -192 -282
-276 -318 -294 -118 -60 -135 -73 -125 -94 9 -16 7 -19 -8 -19 -16 0 -21 -10
-27 -55 -3 -31 -2 -69 4 -88 6 -17 24 -111 42 -207 32 -180 45 -214 77 -194
22 14 43 173 31 236 -4 24 -8 53 -9 65 0 21 1 21 34 8 33 -14 39 -13 134 25
123 50 226 77 323 85 127 11 119 5 119 88 l0 72 96 96 96 96 46 -8 c26 -5 54
-11 61 -14 10 -4 -34 -55 -139 -160 -130 -130 -151 -155 -130 -155 19 0 63 38
176 151 l152 151 51 -17 c28 -9 51 -20 51 -23 0 -4 -61 -68 -135 -142 -108
-108 -132 -136 -118 -141 14 -5 52 27 158 132 l140 138 45 -20 c24 -11 46 -22
49 -25 3 -2 -53 -62 -123 -133 -104 -105 -125 -129 -110 -135 14 -5 47 22 145
120 l126 126 32 -16 c17 -9 31 -21 31 -27 0 -28 -41 -83 -123 -166 -75 -76
-88 -93 -73 -99 13 -5 31 7 67 42 52 51 62 50 30 -3 -11 -17 -16 -33 -11 -35
4 -2 4 -28 -1 -58 -9 -53 2 -228 16 -250 11 -18 45 -10 55 13 15 34 70 341 77
431 5 65 9 80 24 83 11 3 16 9 13 14 -3 5 0 9 5 9 6 0 11 14 11 31 0 16 -4 28
-9 25 -5 -3 -9 7 -9 22 0 55 -12 146 -19 151 -15 12 -43 73 -43 95 0 13 -11
35 -25 50 -28 30 -59 86 -49 86 4 0 -16 23 -45 51 -29 28 -50 53 -47 57 9 8
-15 33 -25 26 -5 -3 -32 18 -59 46 -28 28 -50 49 -50 46 0 -9 -98 44 -102 55
-2 6 -15 12 -28 13 -29 3 -103 28 -110 37 -3 3 -39 9 -80 12 -41 4 -88 9 -105
12 -16 3 -36 1 -44 -4z m-78 -473 c-70 -70 -135 -128 -144 -128 -9 0 -54 -11
-99 -24 l-83 -24 224 224 224 224 3 -72 3 -72 -128 -128z m115 -84 c-7 -6 -49
-15 -93 -19 l-80 -7 90 91 90 92 3 -72 c2 -50 -1 -76 -10 -85z"/>
<path d="M2266 4994 c-39 -21 -117 -82 -114 -88 5 -9 -195 -205 -204 -200 -4
3 -8 1 -8 -5 0 -5 -14 -25 -31 -43 -30 -33 -74 -107 -67 -114 4 -3 468 456
468 463 0 6 -16 2 -44 -13z"/>
<path d="M2811 2953 c-1 -29 -102 -79 -188 -94 l-63 -11 0 -72 c0 -66 -2 -75
-28 -99 -30 -29 -55 -36 -46 -13 3 8 -3 23 -13 34 -30 31 -26 43 29 99 49 49
51 53 27 53 -29 0 -114 -80 -102 -96 5 -6 -12 10 -36 35 -25 25 -41 39 -36 31
6 -12 5 -13 -5 -3 -11 11 -10 17 10 38 21 22 22 28 10 35 -11 7 -24 0 -49 -23
-18 -18 -35 -27 -37 -22 -3 7 -30 9 -72 7 l-67 -4 30 23 c16 13 33 23 36 22 4
-1 9 4 12 11 5 11 -1 12 -31 4 -19 -5 -50 -18 -68 -27 -28 -15 -30 -19 -15
-29 14 -11 13 -12 -6 -7 -14 4 -23 2 -23 -5 0 -7 -7 -10 -15 -6 -8 3 -15 1
-15 -5 0 -6 -7 -6 -20 1 -16 9 -19 8 -13 -6 4 -12 3 -15 -5 -10 -7 4 -12 2
-12 -4 0 -6 -4 -8 -10 -5 -5 3 -10 1 -10 -6 0 -7 -3 -9 -7 -6 -3 4 -12 -1 -20
-11 -8 -9 -11 -10 -7 -2 4 8 -14 -8 -41 -35 -27 -28 -48 -53 -47 -57 1 -5 -3
-8 -9 -8 -5 0 -7 -4 -4 -10 3 -5 2 -10 -4 -10 -6 0 -8 -7 -5 -15 4 -8 2 -15
-4 -15 -6 0 -8 -17 -5 -42 4 -25 2 -39 -4 -35 -5 3 -70 -55 -144 -129 -114
-114 -130 -134 -109 -134 19 0 55 30 140 115 111 112 136 131 124 100 -4 -8
-1 -15 6 -15 6 0 8 -4 5 -10 -3 -5 -1 -10 4 -10 6 0 10 -3 10 -7 -3 -20 2 -34
10 -29 5 3 15 -2 22 -12 12 -15 12 -16 -1 -7 -12 9 -28 -3 -79 -57 -56 -60
-62 -68 -41 -68 15 0 45 21 83 57 l60 57 30 -34 c16 -19 26 -29 22 -21 -5 9
-4 12 3 7 17 -10 15 -26 -5 -48 -15 -17 -15 -18 6 -18 12 0 33 7 46 16 18 11
25 13 25 4 0 -7 7 -10 15 -6 8 3 15 1 15 -5 0 -6 7 -9 15 -5 8 3 15 2 15 -2 0
-5 15 -9 33 -10 17 -1 68 -5 112 -9 l80 -8 3 -1092 2 -1093 108 -1 c59 0 158
-4 220 -7 l112 -7 0 1101 0 1101 88 7 c48 3 287 7 532 9 l445 2 -2 35 c-1 19
-8 39 -15 45 -12 9 -20 24 -58 107 -7 15 -16 25 -20 23 -8 -5 -53 50 -63 77
-3 10 -21 24 -39 32 -41 18 -68 40 -68 54 0 10 -29 26 -42 24 -4 -1 -26 10
-50 23 -24 14 -38 25 -33 26 19 1 -30 18 -56 18 -14 1 -47 12 -73 26 -26 14
-56 25 -68 25 -30 0 -98 22 -98 31 0 5 -17 11 -37 14 -55 10 -107 26 -114 37
-3 5 -22 11 -41 13 -51 5 -118 27 -112 36 3 5 -2 9 -10 9 -8 0 -17 8 -19 18
-4 13 -5 12 -6 -5z m-603 -402 c-65 -63 -114 -119 -111 -124 3 -6 1 -7 -6 -3
-6 4 -9 12 -6 17 4 5 2 9 -4 9 -6 0 -8 7 -5 15 4 8 1 15 -5 15 -6 0 -11 11
-11 25 0 14 5 25 11 25 6 0 9 6 6 13 -2 6 3 18 12 25 13 11 13 12 1 7 -9 -4
-7 0 3 8 10 9 25 24 34 34 8 10 12 12 8 3 -4 -10 -2 -9 8 2 8 10 17 15 20 11
4 -3 7 -1 7 5 0 6 7 9 15 6 8 -4 15 -1 15 5 0 6 7 8 15 5 8 -4 15 -2 15 3 0 5
21 9 48 9 l47 0 -117 -115z m193 72 l24 -28 -26 20 c-18 14 -16 11 5 -10 17
-17 30 -30 29 -30 -2 1 -54 -50 -116 -112 -62 -62 -119 -113 -126 -113 -7 0
-9 5 -5 12 5 8 2 9 -10 5 -9 -4 -15 -3 -12 1 3 4 -4 14 -16 21 -15 9 -18 10
-13 0 5 -8 4 -10 -3 -5 -7 4 -12 13 -12 19 0 14 218 232 240 240 8 3 15 6 16
6 0 1 11 -11 25 -26z m55 -108 c-3 -8 -1 -15 5 -15 6 0 8 -9 4 -19 -3 -11 -1
-22 5 -26 20 -12 9 -35 -35 -76 -34 -32 -43 -45 -33 -51 8 -5 -11 -7 -47 -3
-33 3 -73 5 -90 5 -28 0 -24 5 70 100 92 92 136 123 121 85z"/>
<path d="M1875 2806 c-38 -14 -73 -35 -60 -36 5 0 -98 -108 -230 -240 -197
-197 -235 -240 -215 -240 19 0 84 60 280 255 141 140 261 255 268 255 7 0 12
5 12 10 0 12 -16 11 -55 -4z"/>
<path d="M3940 1881 c0 -6 -11 -23 -25 -36 -18 -19 -35 -25 -70 -25 l-45 0 0
-205 0 -205 64 0 63 0 -4 113 c-3 61 -7 147 -10 191 -5 67 -2 85 17 123 12 24
19 47 16 50 -3 4 -6 1 -6 -6z"/>
</g>
</svg>
